<svg width="32" height="32" viewBox="0 0 32 32" fill="none" xmlns="http://www.w3.org/2000/svg">
<path d="M16.0002 6.66665C16.0002 5.9594 15.719 5.28133 15.2189 4.78123C14.7188 4.28122 14.0407 3.99998 13.3335 3.99998C11.2416 4.00005 9.69318 4.74499 8.48716 5.95571C7.24605 7.20168 6.31973 8.99422 5.64601 11.1263C4.46335 14.8691 4.15566 19.3274 4.04835 22.8255L4.0119 24.2617C4.00439 24.6235 4.14352 24.863 4.29966 24.9791L4.54445 25.1536C5.80981 26.0158 7.61507 26.7192 9.78533 27.2122C12.0819 27.7339 14.6992 28 17.3335 28C23.3961 28 27.7223 24.3668 27.9872 20.3867L28.0002 20C28.0008 18.7727 27.5783 17.5821 26.8036 16.6302C26.0288 15.6784 24.9494 15.022 23.7476 14.7734C22.5456 14.5249 21.2934 14.699 20.2046 15.2656C19.6214 15.5692 19.1069 15.9784 18.6773 16.4635C19.4361 16.7332 20.1532 17.1141 20.801 17.6002C21.3898 18.0423 21.5085 18.8785 21.0666 19.4674C20.6246 20.0559 19.7895 20.1746 19.2007 19.7331C18.5571 19.2501 17.812 18.9187 17.0223 18.7643C16.8331 18.7273 16.6419 18.7011 16.4507 18.6849C16.432 18.6835 16.4134 18.6818 16.3947 18.6797C15.8061 18.6359 15.213 18.6912 14.6395 18.8424C13.8613 19.0477 13.1386 19.4254 12.5275 19.9492C11.9167 20.4728 11.4326 21.1284 11.1109 21.8659C10.8165 22.5407 10.0305 22.8501 9.35565 22.556C8.68079 22.2616 8.37263 21.4757 8.66684 20.8008C8.91703 20.2272 9.23315 19.687 9.60695 19.1901C9.89501 18.8003 10.1068 18.1623 10.2333 17.2122C10.3591 16.2664 10.3803 15.2172 10.4221 14.0768C10.4618 12.9901 10.5215 11.7987 10.7671 10.7669C10.8826 10.2821 11.0519 9.77235 11.3166 9.30076C11.1489 9.11203 11.0059 8.91706 10.8817 8.72524C10.4815 8.10712 10.6581 7.28041 11.2762 6.88019C11.8942 6.4805 12.7198 6.65701 13.12 7.27472C13.2821 7.52512 13.4372 7.68158 13.6213 7.78644C13.8046 7.89083 14.1138 7.99994 14.6668 7.99998C15.0204 7.99998 15.3595 7.85932 15.6096 7.60935C15.8596 7.35931 16.0002 7.02027 16.0002 6.66665ZM18.6668 6.66665C18.6668 7.72751 18.2451 8.74463 17.495 9.49477C16.7448 10.2448 15.7276 10.6666 14.6668 10.6666C14.3098 10.6666 13.9734 10.6372 13.6564 10.5807C13.5518 10.7577 13.4492 11.0141 13.3609 11.3854C13.185 12.1244 13.1268 13.062 13.0861 14.1745C13.0584 14.9319 13.0357 15.7725 12.9728 16.595C13.2933 16.4641 13.622 16.3518 13.9585 16.263C14.541 16.1094 15.1376 16.0223 15.7359 16.0026C16.4943 14.6864 17.6153 13.6068 18.9741 12.8997C20.6073 12.0499 22.4837 11.79 24.2866 12.1627C26.0896 12.5355 27.709 13.5187 28.8713 14.9466C30.0334 16.3743 30.6676 18.159 30.6668 20C30.6668 26.1811 24.4084 30.6666 17.3335 30.6666C14.5323 30.6666 11.7143 30.3859 9.19549 29.8138C6.6948 29.2457 4.39752 28.3699 2.71242 27.1224L2.71112 27.1211C1.73182 26.3944 1.32473 25.2579 1.34653 24.207C1.41902 20.5817 1.62172 15.011 3.10304 10.3229C3.84597 7.97183 4.94231 5.73488 6.59783 4.0729C8.28833 2.37597 10.5106 1.33338 13.3335 1.33331C14.748 1.33331 16.1055 1.89562 17.1056 2.89581C18.1055 3.89596 18.6668 5.2524 18.6668 6.66665Z" fill="black"/>
</svg>
