<svg width="32" height="32" viewBox="0 0 32 32" fill="none" xmlns="http://www.w3.org/2000/svg">
<path fill-rule="evenodd" clip-rule="evenodd" d="M27.1613 14.3266L21.3333 11.996H10.6667L4.83867 14.3266C4.59104 14.4256 4.37877 14.5965 4.22926 14.8173C4.07976 15.0381 3.9999 15.2986 4 15.5653V27.996C4 28.3496 4.14048 28.6887 4.39052 28.9388C4.64057 29.1888 4.97971 29.3293 5.33333 29.3293H26.6667C27.0203 29.3293 27.3594 29.1888 27.6095 28.9388C27.8595 28.6887 28 28.3496 28 27.996V15.5653C28.0001 15.2986 27.9202 15.0381 27.7707 14.8173C27.6212 14.5965 27.409 14.4256 27.1613 14.3266ZM22.2761 3.3865C22.0261 3.13645 21.687 2.99597 21.3333 2.99597H10.6667C10.313 2.99597 9.97391 3.13645 9.72386 3.3865C9.47381 3.63654 9.33333 3.97568 9.33333 4.32931V9.66264C9.33333 10.2149 9.78105 10.6626 10.3333 10.6626H21.6667C22.219 10.6626 22.6667 10.2149 22.6667 9.66264V4.32931C22.6667 3.97568 22.5262 3.63654 22.2761 3.3865ZM12 5.66264H20V7.99597H12V5.66264ZM11.18 14.6626H20.82L25.3333 16.4666V18.6613V25.328V26.6613H6.66667V16.4666L11.18 14.6626Z" fill="black"/>
</svg>
